<svg width="48" height="48" viewBox="0 0 48 48" fill="none" xmlns="http://www.w3.org/2000/svg">
<circle cx="24" cy="24" r="24" fill="#2A7FFF" fill-opacity="0.12"/>
<path d="M33 26V21C33 19.8954 32.1046 19 31 19H17C15.8954 19 15 19.8954 15 21V27C15 28.1046 15.8954 29 17 29H24" stroke="#2A7FFF" stroke-width="2" stroke-linecap="round" stroke-linejoin="round"/>
<path fill-rule="evenodd" clip-rule="evenodd" d="M32.8792 29.9179C33.373 30.2216 33.3426 30.9609 32.834 31.0186L30.2674 31.3095L29.1162 33.6218C28.8881 34.08 28.183 33.8557 28.0664 33.2878L26.8111 27.1718C26.7126 26.6918 27.144 26.3897 27.5613 26.6465L32.8792 29.9179Z" stroke="#2A7FFF" stroke-width="2"/>
<path d="M24 24.0091L24.01 23.998" stroke="#2A7FFF" stroke-width="2" stroke-linecap="round" stroke-linejoin="round"/>
<path d="M28 24.0091L28.01 23.998" stroke="#2A7FFF" stroke-width="2" stroke-linecap="round" stroke-linejoin="round"/>
<path d="M20 24.0091L20.01 23.998" stroke="#2A7FFF" stroke-width="2" stroke-linecap="round" stroke-linejoin="round"/>
</svg>
